# xmcd
#
# Track frame offsets: 
#        150
#        11656
#        24248
#        33771
#        46088
#        55399
#        65725
#        77992
#        87916
#        98972
#        109614
#        121059
#        130811
#        142928
#        156070
#        165453
#        177462
#        189213
#        198359
#        208093
#        219457
#        227803
#        240173
#        251406
#        262219
#
# Disc length: 3635 seconds
#
# Revision: 1
# Processed by: cddbd v1.5.2PL0 Copyright (c) Steve Scherf et al.
# Submitted via: ExactAudioCopyFreeDBPlugin 1.0
#
DISCID=4c0e3119
DTITLE=Various Artist - Soul Sixties [Real Gone Music]
DYEAR=2015
DGENRE=Soul
TTITLE0=Jerry Butler - Make it Easy on Yourself
TTITLE1=Johnny Nash - Don't Take Your Love Away
TTITLE2=The Olympics - The Stomp
TTITLE3=Allen Orange - Miss Nosey
TTITLE4=Freda Payne - He Who Laughs Last
TTITLE5=Wilson Pickett - My Heart Belongs to You
TTITLE6=Otis Redding - Hey Hey Baby
TTITLE7=Gene McDaniels - Point of No Return
TTITLE8=Mack Rice - Baby I'm Coming Home
TTITLE9=The Corvairs - True True Love
TTITLE10=Beverly Ann Gibson - A Three Dollar Bill
TTITLE11=Ron Holden and The Twilighters - You Got That Lovin' Touch
TTITLE12=The Charts - Desire
TTITLE13=Don Gardner and Dee Dee Ford - I Need Your Lovin'
TTITLE14=The Shirelles - Stop the Music
TTITLE15=Marvin and Johnny - Second Helping of Cherry Pie
TTITLE16=Bob B. Soxx and The Blue Jeans - Flip and Nitty
TTITLE17=Clydie KIng and Mel Carter - Who Do You Love
TTITLE18=Benny Spellman - Fortune Teller
TTITLE19=The Supremes - Let Me Go the Right Way
TTITLE20=The Tams - Find Another Love
TTITLE21=Johnnie Taylor - Rome (Wasn't Built in a Day)
TTITLE22=Willie Tee - Always Accused
TTITLE23=The Crystals - He's a Rebel
TTITLE24=The Ronettes - Silhouettes
EXTD=
EXTT0=
EXTT1=
EXTT2=
EXTT3=
EXTT4=
EXTT5=
EXTT6=
EXTT7=
EXTT8=
EXTT9=
EXTT10=
EXTT11=
EXTT12=
EXTT13=
EXTT14=
EXTT15=
EXTT16=
EXTT17=
EXTT18=
EXTT19=
EXTT20=
EXTT21=
EXTT22=
EXTT23=
EXTT24=
PLAYORDER=
